<svg width="25" height="25" viewBox="0 0 25 25" fill="none" xmlns="http://www.w3.org/2000/svg">
<path d="M18.2291 2.60416C17.7507 2.60397 17.2787 2.71362 16.8493 2.92466C16.42 3.1357 16.0449 3.44249 15.7528 3.8214C15.4607 4.2003 15.2596 4.6412 15.1648 5.11012C15.0701 5.57903 15.0842 6.06345 15.2062 6.52603C15.1308 6.54198 15.0581 6.56901 14.9906 6.60624L12.1187 8.17186L8.46662 10.2604C8.43006 10.2812 8.39522 10.3049 8.36245 10.3312C7.85438 10.0308 7.27159 9.88035 6.68156 9.89738C6.09153 9.91441 5.5184 10.0982 5.0285 10.4275C4.5386 10.7568 4.15198 11.218 3.91339 11.7579C3.6748 12.2979 3.594 12.8943 3.68035 13.4782C3.76669 14.0621 4.01666 14.6097 4.40129 15.0574C4.78593 15.5052 5.28952 15.8348 5.85375 16.0082C6.41798 16.1816 7.01978 16.1916 7.58949 16.0372C8.15919 15.8827 8.6735 15.5701 9.07287 15.1354L12.1208 16.8302L15.1979 18.5083C15.0116 19.2458 15.1007 20.0259 15.4484 20.7023C15.7961 21.3788 16.3787 21.9053 17.0868 22.1829C17.7949 22.4606 18.58 22.4705 19.2949 22.2108C20.0098 21.951 20.6054 21.4395 20.9701 20.772C21.3348 20.1045 21.4435 19.3269 21.2759 18.585C21.1082 17.843 20.6758 17.1877 20.0595 16.7419C19.4433 16.296 18.6856 16.0902 17.9285 16.163C17.1713 16.2359 16.4668 16.5823 15.9468 17.1375L12.877 15.4625L9.80829 13.7583C9.99501 12.9848 9.8803 12.1691 9.48745 11.4771L12.8812 9.53749L15.7385 7.97811C15.8065 7.94131 15.8686 7.89462 15.9229 7.83957C16.2738 8.22283 16.7148 8.51252 17.2059 8.68242C17.697 8.85232 18.2227 8.89706 18.7355 8.81261C19.2482 8.72816 19.7318 8.51717 20.1425 8.19874C20.5531 7.88031 20.8779 7.4645 21.0874 6.98893C21.2969 6.51337 21.3845 5.99307 21.3423 5.47513C21.3 4.95719 21.1293 4.45796 20.8455 4.02263C20.5617 3.5873 20.1739 3.2296 19.717 2.98193C19.2602 2.73425 18.7488 2.60441 18.2291 2.60416Z" fill="#8C8C8C"/>
</svg>
