<svg width="25" height="25" viewBox="0 0 25 25" fill="none" xmlns="http://www.w3.org/2000/svg">
<path d="M20 7.50004H4.375V6.87504L18.125 5.77504V6.87504H20V5.00004C20 3.62504 18.8862 2.66004 17.5262 2.85379L4.975 4.64629C3.61375 4.84129 2.5 6.12504 2.5 7.50004V20C2.5 20.6631 2.76339 21.299 3.23223 21.7678C3.70107 22.2367 4.33696 22.5 5 22.5H20C20.663 22.5 21.2989 22.2367 21.7678 21.7678C22.2366 21.299 22.5 20.6631 22.5 20V10C22.5 9.337 22.2366 8.70112 21.7678 8.23228C21.2989 7.76344 20.663 7.50004 20 7.50004ZM18.125 16.2575C17.8787 16.2575 17.6348 16.2089 17.4073 16.1145C17.1797 16.0202 16.973 15.882 16.7989 15.7077C16.6248 15.5335 16.4867 15.3267 16.3925 15.0991C16.2984 14.8715 16.2499 14.6276 16.25 14.3813C16.2501 14.135 16.2987 13.8911 16.393 13.6636C16.4873 13.436 16.6256 13.2293 16.7998 13.0552C16.974 12.8811 17.1808 12.743 17.4084 12.6488C17.636 12.5546 17.8799 12.5062 18.1263 12.5063C18.6237 12.5065 19.1007 12.7042 19.4523 13.0561C19.804 13.408 20.0014 13.8851 20.0012 14.3825C20.0011 14.88 19.8033 15.357 19.4515 15.7086C19.0996 16.0603 18.6224 16.2577 18.125 16.2575Z" fill="#8C8C8C"/>
</svg>
