<svg width="26" height="25" viewBox="0 0 26 25" fill="none" xmlns="http://www.w3.org/2000/svg">
<path fill-rule="evenodd" clip-rule="evenodd" d="M8.66658 7.29173C8.66658 6.18666 9.10557 5.12685 9.88697 4.34545C10.6684 3.56405 11.7282 3.12506 12.8333 3.12506C13.9383 3.12506 14.9981 3.56405 15.7795 4.34545C16.5609 5.12685 16.9999 6.18666 16.9999 7.29173C16.9999 8.3968 16.5609 9.4566 15.7795 10.238C14.9981 11.0194 13.9383 11.4584 12.8333 11.4584C11.7282 11.4584 10.6684 11.0194 9.88697 10.238C9.10557 9.4566 8.66658 8.3968 8.66658 7.29173ZM8.66658 13.5417C7.28525 13.5417 5.96049 14.0905 4.98374 15.0672C4.00699 16.044 3.45825 17.3687 3.45825 18.7501C3.45825 19.5789 3.78749 20.3737 4.37354 20.9598C4.95959 21.5458 5.75445 21.8751 6.58325 21.8751H19.0833C19.9121 21.8751 20.7069 21.5458 21.293 20.9598C21.879 20.3737 22.2083 19.5789 22.2083 18.7501C22.2083 17.3687 21.6595 16.044 20.6828 15.0672C19.706 14.0905 18.3813 13.5417 16.9999 13.5417H8.66658Z" fill="#8C8C8C"/>
</svg>
