<svg width="22" height="22" viewBox="0 0 22 22" fill="none" xmlns="http://www.w3.org/2000/svg">
<path fill-rule="evenodd" clip-rule="evenodd" d="M12.0797 0.309052C11.8818 0.111166 11.6133 0 11.3334 0C11.0535 0 10.7851 0.111166 10.5871 0.309052L3.19825 7.69794L1.08714 9.80905C0.986325 9.90642 0.90591 10.0229 0.85059 10.1517C0.795269 10.2805 0.76615 10.419 0.764932 10.5591C0.763715 10.6993 0.790422 10.8383 0.843496 10.968C0.89657 11.0977 0.974949 11.2156 1.07406 11.3147C1.17317 11.4138 1.29102 11.4922 1.42075 11.5453C1.55047 11.5983 1.68946 11.625 1.82962 11.6238C1.96978 11.6226 2.10829 11.5935 2.23707 11.5382C2.36585 11.4828 2.48233 11.4024 2.5797 11.3016L2.88897 10.9923V17.9442C2.88897 18.7841 3.2226 19.5895 3.81647 20.1834C4.41034 20.7773 5.21579 21.1109 6.05564 21.1109H16.6112C17.451 21.1109 18.2565 20.7773 18.8504 20.1834C19.4442 19.5895 19.7779 18.7841 19.7779 17.9442V10.9923L20.0871 11.3016C20.2862 11.4939 20.5529 11.6003 20.8296 11.5979C21.1064 11.5955 21.3711 11.4845 21.5668 11.2887C21.7625 11.093 21.8736 10.8283 21.876 10.5515C21.8784 10.2748 21.772 10.0081 21.5797 9.80905L12.0797 0.309052Z" fill="#8C8C8C"/>
<path d="M8.35303 14.869C8.35303 14.1327 8.94998 13.5357 9.68636 13.5357H12.6079C13.3443 13.5357 13.9413 14.1327 13.9413 14.869V21.3592H8.35303V14.869Z" fill="white"/>
</svg>
